<?xml version="1.0" encoding="utf-8"?>
<!-- Generator: Adobe Illustrator 25.2.1, SVG Export Plug-In . SVG Version: 6.00 Build 0)  -->
<svg version="1.1" id="Calque_1" xmlns="http://www.w3.org/2000/svg" xmlns:xlink="http://www.w3.org/1999/xlink" x="0px" y="0px"
	 viewBox="0 0 128 128" style="enable-background:new 0 0 128 128;" xml:space="preserve">
<style type="text/css">
	.st0{fill:#BF3030;}
	.st1{fill:#AA0000;stroke:#000000;stroke-miterlimit:10;}
	.st2{fill:#FFABAB;}
	.st3{fill:none;stroke:#000000;stroke-width:5;stroke-linecap:round;stroke-linejoin:round;}
</style>
<path class="st0" d="M72.2,62.2v-8.7H53.5v8.7c0,13.4-5.3,26.3-14.7,35.8h48C77.5,88.4,72.2,75.6,72.2,62.2z"/>
<path class="st1" d="M33,98h60v10H33V98z"/>
<path class="st2" d="M59,61.7V53h-6v9c0,13.6-5,26.4-14.7,36H33v10h20V98C59,91.1,59,75.3,59,61.7z"/>
<path class="st0" d="M80.3,31.1c0-9.5-7.8-17.1-17.5-17.1s-17.5,7.7-17.5,17.1c0,5.1,2.3,9.7,6,12.9h23.1
	C78,40.9,80.3,36.3,80.3,31.1z"/>
<path class="st3" d="M80.3,31.1c0-9.5-7.8-17.1-17.5-17.1s-17.5,7.7-17.5,17.1c0,5.1,2.3,9.7,6,12.9h23.1
	C78,40.9,80.3,36.3,80.3,31.1z"/>
<path class="st2" d="M54.1,34.6c-1.7,0-3.1-1.3-3.1-3C51,25.2,56.3,20,62.8,20c1.7,0,3.1,1.3,3.1,3s-1.4,3-3.1,3
	c-3.1,0-5.7,2.5-5.7,5.6C57.1,33.3,55.8,34.6,54.1,34.6z"/>
<path class="st3" d="M45,53h36 M53.5,53.5v8.7c0,13-4.9,25.4-13.7,34.9 M85.5,96.6C77,87.2,72.2,74.9,72.2,62.2v-8.7 M62.8,98H93v10
	H33V98h12.8"/>
</svg>
